<svg width="137" height="137" viewBox="0 0 137 137" fill="none" xmlns="http://www.w3.org/2000/svg">
<path d="M65.2355 132.719C53.18 132.719 41.3954 129.144 31.3717 122.446C21.348 115.748 13.5355 106.228 8.92207 95.0905C4.30866 83.9527 3.10157 71.697 5.45342 59.8731C7.80527 48.0493 13.6104 37.1884 22.1348 28.6638C27.7812 22.9861 34.4976 18.4848 41.8953 15.4202C49.293 12.3556 57.225 10.7887 65.2323 10.8102C69.227 10.8109 73.212 11.2017 77.1307 11.9771L81.0625 12.7562L73.6203 20.1989L74.9952 35.339L72.2123 34.8181C69.9117 34.3876 67.5761 34.1706 65.2355 34.1697C57.4981 34.1697 49.949 36.5563 43.6177 41.0041C37.2865 45.4519 32.4813 51.7443 29.8575 59.0233C27.2337 66.3022 26.919 74.2134 28.9563 81.6777C30.9937 89.1421 35.2839 95.7964 41.2418 100.733C47.1998 105.67 54.5355 108.648 62.2485 109.263C69.9614 109.877 77.6762 108.098 84.3407 104.167C91.0052 100.236 96.2949 94.3449 99.4885 87.2973C102.682 80.2497 103.624 72.3886 102.186 64.786L101.665 62.0032L116.803 63.3778L124.248 55.9361L125.027 59.8677C126.784 68.7082 126.559 77.8285 124.368 86.5717C122.178 95.3149 118.075 103.464 112.357 110.431C106.639 117.398 99.4465 123.011 91.2984 126.865C83.1503 130.719 74.2491 132.718 65.2355 132.719Z" fill="#BDBDBD"/>
<path d="M115.012 59.873L102.257 47.1205L111.5 37.8784L99.1243 25.5015L89.8824 34.7434L77.1267 21.9906L75.2368 12.528L83.3193 4.44501L84.5311 4.79286C95.8539 8.07447 106.163 14.1666 114.498 22.5025C122.834 30.8384 128.926 41.1472 132.208 52.4699L132.556 53.6813L124.472 61.7667L115.012 59.873Z" fill="#373737"/>
<path d="M123.768 61.5831C123.627 61.5832 123.486 61.5693 123.348 61.5416L115.647 60.0001C115.233 59.9172 114.853 59.7136 114.554 59.4149L103.771 48.6342C103.572 48.4354 103.414 48.1994 103.306 47.9397C103.199 47.6799 103.143 47.4015 103.143 47.1204C103.143 46.8392 103.199 46.5608 103.306 46.3011C103.414 46.0414 103.572 45.8053 103.771 45.6066L111.5 37.8784L99.1243 25.5015L91.3958 33.23C90.9944 33.6314 90.45 33.8569 89.8823 33.8569C89.3146 33.8569 88.7702 33.6314 88.3687 33.23L77.5853 22.4498C77.2862 22.151 77.0823 21.7701 76.9996 21.3554L75.461 13.6519C75.392 13.3064 75.4093 12.9492 75.5115 12.612C75.6136 12.2748 75.7974 11.968 76.0465 11.7189L82.4282 5.33686C82.6985 5.06704 83.0359 4.87433 83.4056 4.77864C83.7753 4.68296 84.1639 4.68778 84.5311 4.79261C95.8539 8.07422 106.163 14.1663 114.498 22.5022C122.834 30.8381 128.926 41.1469 132.208 52.4697C132.313 52.8368 132.318 53.2253 132.222 53.595C132.127 53.9646 131.934 54.302 131.664 54.572L125.282 60.9567C125.083 61.1554 124.847 61.313 124.588 61.4205C124.328 61.528 124.049 61.5832 123.768 61.5831ZM117.123 55.9295L123.065 57.1186L127.735 52.4453C124.575 42.2879 118.993 33.0507 111.471 25.5287C103.949 18.0067 94.712 12.4252 84.5547 9.26464L79.8836 13.9355L81.0708 19.8811L89.8822 28.6897L97.6106 20.961C97.8094 20.7622 98.0454 20.6046 98.3051 20.497C98.5648 20.3894 98.8432 20.3341 99.1243 20.3341C99.692 20.3342 100.236 20.5598 100.638 20.9613L116.04 36.3655C116.238 36.5643 116.396 36.8002 116.504 37.06C116.611 37.3197 116.667 37.5981 116.667 37.8792C116.667 38.1603 116.611 38.4387 116.504 38.6984C116.396 38.9581 116.238 39.1941 116.04 39.3929L108.312 47.1205L117.123 55.9295Z" fill="#373737"/>
<path d="M112.985 26.1558C112.704 26.1561 112.425 26.1009 112.165 25.9934C111.906 25.8858 111.67 25.7279 111.471 25.5288C103.955 17.9989 94.7161 12.4161 84.5547 9.26465L79.0739 14.7454C78.6724 15.147 78.1279 15.3726 77.5601 15.3727C76.9922 15.3728 76.4477 15.1473 76.0461 14.7459C75.6445 14.3444 75.4189 13.7999 75.4188 13.232C75.4187 12.6642 75.6442 12.1196 76.0457 11.7181L82.4274 5.33606C82.6975 5.06598 83.0349 4.87309 83.4047 4.77739C83.7745 4.68169 84.1631 4.68667 84.5303 4.79181C95.8582 8.06239 106.17 14.156 114.499 22.5015C114.799 22.8009 115.002 23.1824 115.085 23.5977C115.168 24.013 115.125 24.4434 114.963 24.8346C114.801 25.2258 114.526 25.5601 114.174 25.7953C113.822 26.0304 113.408 26.1559 112.985 26.1558Z" fill="#8D8D8D"/>
<path d="M123.768 61.5831C123.345 61.5831 122.931 61.4575 122.579 61.2224C122.227 60.9872 121.953 60.653 121.791 60.2619C121.629 59.8709 121.586 59.4405 121.669 59.0253C121.751 58.6102 121.955 58.2288 122.254 57.9293L128.636 51.5449C128.834 51.3424 129.07 51.1812 129.331 51.0706C129.591 50.96 129.871 50.9022 130.154 50.9005C130.437 50.8989 130.718 50.9534 130.98 51.061C131.242 51.1685 131.48 51.3269 131.68 51.5271C131.88 51.7272 132.039 51.9651 132.147 52.227C132.254 52.4888 132.309 52.7694 132.308 53.0525C132.306 53.3357 132.248 53.6157 132.138 53.8764C132.027 54.137 131.866 54.3732 131.664 54.5712L125.282 60.9559C125.084 61.1551 124.848 61.313 124.588 61.4207C124.328 61.5283 124.049 61.5835 123.768 61.5831Z" fill="#191919"/>
<path d="M122.017 37.3103C121.66 37.3108 121.308 37.2215 120.993 37.0506C120.679 36.8797 120.413 36.6328 120.219 36.3323C118.94 34.3583 117.556 32.4544 116.073 30.6289C115.894 30.411 115.759 30.1597 115.678 29.8896C115.596 29.6195 115.568 29.3359 115.596 29.0551C115.624 28.7742 115.708 28.5017 115.842 28.2533C115.975 28.0048 116.157 27.7853 116.376 27.6073C116.595 27.4293 116.847 27.2964 117.118 27.2162C117.388 27.136 117.672 27.1101 117.953 27.14C118.234 27.1699 118.505 27.255 118.753 27.3904C119.001 27.5258 119.219 27.7089 119.396 27.929C120.976 29.8741 122.45 31.9028 123.813 34.0062C124.022 34.3293 124.14 34.7028 124.155 35.0874C124.17 35.472 124.08 35.8534 123.897 36.1916C123.713 36.5298 123.441 36.8122 123.111 37.0091C122.78 37.2059 122.402 37.31 122.017 37.3103Z" fill="#8D8D8D"/>
<path d="M102.482 66.3781L102.185 64.7866C100.79 57.3532 97.1825 50.5146 91.8345 45.1669C86.4865 39.8191 79.6476 36.2119 72.2142 34.8178L70.6218 34.5203L69.1753 18.5889L76.044 11.7202L78.8742 8.88068L81.0708 19.8811L89.8818 28.6898L99.1245 19.4473L117.553 37.8792L108.312 47.1205L117.123 55.9297L128.11 58.1287L118.41 67.8249L102.482 66.3781Z" fill="#B71C1C"/>
<path d="M63.697 94.8672C64.3064 95.4766 64.7214 96.253 64.8896 97.0983C65.0577 97.9435 64.9714 98.8197 64.6416 99.616C64.3118 100.412 63.7533 101.093 63.0367 101.572C62.3201 102.05 61.4777 102.306 60.6158 102.306C59.754 102.306 58.9115 102.05 58.1949 101.572C57.4783 101.093 56.9198 100.412 56.59 99.616C56.2602 98.8197 56.1739 97.9435 56.342 97.0983C56.5102 96.253 56.9252 95.4766 57.5347 94.8672C57.9393 94.4625 58.4196 94.1415 58.9483 93.9225C59.477 93.7035 60.0436 93.5908 60.6158 93.5908C61.188 93.5908 61.7547 93.7035 62.2833 93.9225C62.812 94.1415 63.2924 94.4625 63.697 94.8672Z" fill="#424242"/>
<path d="M42.1328 73.303C42.7422 73.9124 43.1572 74.6888 43.3254 75.5341C43.4935 76.3794 43.4072 77.2556 43.0774 78.0518C42.7476 78.848 42.1891 79.5286 41.4725 80.0074C40.7559 80.4862 39.9134 80.7418 39.0516 80.7418C38.1898 80.7418 37.3473 80.4862 36.6307 80.0074C35.9141 79.5286 35.3556 78.848 35.0258 78.0518C34.696 77.2556 34.6097 76.3794 34.7778 75.5341C34.946 74.6888 35.361 73.9124 35.9704 73.303C36.3751 72.8984 36.8554 72.5774 37.3841 72.3584C37.9127 72.1394 38.4794 72.0267 39.0516 72.0267C39.6238 72.0267 40.1905 72.1394 40.7191 72.3584C41.2478 72.5774 41.7282 72.8984 42.1328 73.303Z" fill="#424242"/>
<path d="M57.5346 45.5792C58.1438 46.1884 58.5586 46.9645 58.7267 47.8094C58.8948 48.6543 58.8085 49.5301 58.4789 50.326C58.1492 51.1219 57.5909 51.8022 56.8746 52.2808C56.1584 52.7594 55.3162 53.0149 54.4548 53.0149C53.5933 53.0149 52.7512 52.7594 52.0349 52.2808C51.3186 51.8022 50.7603 51.1219 50.4307 50.326C50.101 49.5301 50.0148 48.6543 50.1828 47.8094C50.3509 46.9645 50.7658 46.1884 51.3749 45.5792C51.7793 45.1746 52.2594 44.8536 52.7879 44.6346C53.3163 44.4156 53.8827 44.3029 54.4548 44.3029C55.0268 44.3029 55.5932 44.4156 56.1217 44.6346C56.6501 44.8536 57.1302 45.1746 57.5346 45.5792Z" fill="#424242"/>
<path d="M86.7996 50.2003C87.4088 50.8095 87.8236 51.5856 87.9917 52.4305C88.1598 53.2754 88.0735 54.1512 87.7439 54.9471C87.4142 55.743 86.8559 56.4233 86.1397 56.9019C85.4234 57.3805 84.5813 57.636 83.7198 57.636C82.8583 57.636 82.0162 57.3805 81.2999 56.9019C80.5836 56.4233 80.0253 55.743 79.6957 54.9471C79.366 54.1512 79.2798 53.2754 79.4478 52.4305C79.6159 51.5856 80.0308 50.8095 80.64 50.2003C81.0443 49.7957 81.5244 49.4747 82.0529 49.2557C82.5813 49.0367 83.1477 48.924 83.7198 48.924C84.2918 48.924 84.8582 49.0367 85.3867 49.2557C85.9151 49.4747 86.3953 49.7957 86.7996 50.2003Z" fill="#424242"/>
<path d="M91.4208 79.4654C92.0302 80.0746 92.4453 80.8508 92.6135 81.6959C92.7818 82.541 92.6956 83.417 92.3659 84.2132C92.0363 85.0093 91.4779 85.6898 90.7614 86.1686C90.045 86.6474 89.2026 86.9029 88.3409 86.9029C87.4792 86.9029 86.6369 86.6474 85.9204 86.1686C85.204 85.6898 84.6456 85.0093 84.3159 84.2132C83.9863 83.417 83.9001 82.541 84.0683 81.6959C84.2366 80.8508 84.6517 80.0746 85.2611 79.4654C86.0782 78.649 87.1859 78.1904 88.3409 78.1904C89.496 78.1904 90.6037 78.649 91.4208 79.4654Z" fill="#424242"/>
<path d="M65.2369 113.64C59.7376 113.641 54.2922 112.557 49.2116 110.453C44.1309 108.349 39.5145 105.264 35.6259 101.376C31.7373 97.4873 28.6527 92.8709 26.5481 87.7903C24.4436 82.7097 23.3603 77.2644 23.3602 71.7651C23.3601 66.2659 24.4432 60.8205 26.5476 55.7398C28.652 50.6592 31.7365 46.0428 35.6249 42.1542C39.5134 38.2655 44.1298 35.1809 49.2103 33.0764C54.2909 30.9718 59.7363 29.8886 65.2355 29.8885C67.8413 29.8889 70.4414 30.1301 73.0028 30.6091C83.2574 32.539 92.422 38.2278 98.7016 46.5612C104.981 54.8947 107.923 65.2724 106.952 75.6617C105.98 86.0509 101.165 95.7032 93.4491 102.728C85.7333 109.752 75.6728 113.643 65.2382 113.639L65.2369 113.64ZM60.6158 95.7341C60.1034 95.7347 59.607 95.9129 59.2112 96.2384C58.8155 96.5639 58.5448 97.0165 58.4454 97.5192C58.3459 98.0219 58.4238 98.5435 58.6658 98.9952C58.9078 99.4469 59.2989 99.8007 59.7725 99.9963C60.2461 100.192 60.7729 100.217 61.2631 100.068C61.7534 99.919 62.1767 99.6044 62.461 99.1781C62.7453 98.7518 62.8731 98.2401 62.8224 97.7302C62.7718 97.2203 62.5459 96.7437 62.1833 96.3817C61.9777 96.1756 61.7333 96.0122 61.4643 95.9009C61.1953 95.7896 60.9069 95.7327 60.6158 95.7333V95.7341ZM88.342 80.3296C87.8287 80.3287 87.3311 80.5058 86.9338 80.8308C86.5366 81.1557 86.2643 81.6084 86.1635 82.1117C86.0627 82.6149 86.1395 83.1375 86.3809 83.5905C86.6223 84.0434 87.0134 84.3985 87.4873 84.5954C87.9613 84.7922 88.4889 84.8186 88.9802 84.67C89.4714 84.5214 89.8959 84.207 90.1813 83.7804C90.4666 83.3538 90.5952 82.8414 90.545 82.3306C90.4949 81.8198 90.2691 81.3423 89.9062 80.9793C89.7013 80.7731 89.4576 80.6096 89.1891 80.4981C88.9206 80.3865 88.6327 80.3293 88.342 80.3296ZM65.2369 61.3851C62.8388 61.3879 60.5159 62.222 58.6638 63.7452C56.8116 65.2684 55.5448 67.3866 55.0791 69.739C54.6133 72.0914 54.9775 74.5325 56.1095 76.6465C57.2416 78.7605 59.0715 80.4167 61.2876 81.333C63.5036 82.2493 65.9688 82.3691 68.2633 81.6718C70.5577 80.9746 72.5395 79.5035 73.8711 77.5092C75.2027 75.5148 75.8017 73.1205 75.5662 70.734C75.3306 68.3476 74.275 66.1166 72.5792 64.4211C71.6169 63.4547 70.4725 62.6888 69.2121 62.1678C67.9518 61.6468 66.6006 61.3809 65.2369 61.3856V61.3851ZM39.0517 74.1689C38.5396 74.1697 38.0436 74.3479 37.6482 74.6733C37.2529 74.9987 36.9825 75.4512 36.8833 75.9535C36.784 76.4559 36.862 76.9771 37.1039 77.4284C37.3458 77.8797 37.7367 78.2332 38.21 78.4287C38.6833 78.6241 39.2098 78.6494 39.6996 78.5003C40.1895 78.3512 40.6125 78.0368 40.8966 77.6108C41.1808 77.1848 41.3084 76.6734 41.2578 76.1639C41.2072 75.6543 40.9815 75.178 40.6192 74.8162C40.4135 74.6103 40.1691 74.4471 39.9001 74.3361C39.631 74.2251 39.3427 74.1685 39.0517 74.1695V74.1689ZM83.7209 51.0646C83.2077 51.0639 82.7101 51.2412 82.313 51.5662C81.9159 51.8913 81.6438 52.344 81.5431 52.8472C81.4424 53.3505 81.5194 53.873 81.7609 54.3259C82.0024 54.7787 82.3935 55.1338 82.8674 55.3305C83.3414 55.5273 83.869 55.5536 84.3602 55.4049C84.8514 55.2562 85.2758 54.9418 85.5611 54.5152C85.8464 54.0886 85.9749 53.5763 85.9248 53.0655C85.8746 52.5548 85.6488 52.0772 85.286 51.7143C85.0809 51.508 84.8371 51.3444 84.5684 51.2329C84.2998 51.1214 84.0118 51.0642 83.7209 51.0646ZM54.4548 46.4436C53.9419 46.443 53.4446 46.6203 53.0478 46.9454C52.651 47.2704 52.3791 47.7229 52.2786 48.2259C52.178 48.7289 52.255 49.2512 52.4964 49.7037C52.7378 50.1563 53.1287 50.5112 53.6024 50.7079C54.0762 50.9046 54.6034 50.9309 55.0944 50.7823C55.5854 50.6338 56.0096 50.3196 56.2949 49.8934C56.5802 49.4671 56.7088 48.955 56.6588 48.4445C56.6089 47.9341 56.3834 47.4567 56.021 47.0938C55.8159 46.8872 55.5719 46.7233 55.303 46.6117C55.0342 46.5001 54.7459 46.4429 54.4548 46.4436Z" fill="#757575"/>
<path d="M38.6918 21.4062C38.2101 21.4069 37.7422 21.245 37.3639 20.9468C36.9856 20.6486 36.7189 20.2315 36.6069 19.763C36.495 19.2944 36.5444 18.8018 36.7471 18.3649C36.9498 17.9279 37.294 17.572 37.724 17.3548C42.5846 14.8972 47.7537 13.1047 53.0923 12.0255C53.6484 11.9138 54.226 12.0274 54.6984 12.3413C55.1708 12.6552 55.4993 13.1437 55.6118 13.6996C55.7243 14.2555 55.6117 14.8333 55.2985 15.3061C54.9853 15.779 54.4973 16.1083 53.9416 16.2216C48.9788 17.2249 44.1735 18.8912 39.6551 21.1759C39.3566 21.3273 39.0265 21.4062 38.6918 21.4062Z" fill="#EFEFEF"/>
<path d="M17.1269 107.751C16.7836 107.751 16.4453 107.669 16.1404 107.511C15.8356 107.353 15.5733 107.125 15.3756 106.844C10.7331 100.231 7.45005 92.7618 5.71693 84.87C3.98381 76.9782 3.83511 68.8208 5.27947 60.871C6.72383 52.9212 9.73248 45.3375 14.1309 38.5596C18.5293 31.7818 24.2298 25.9449 30.9018 21.3875C31.3706 21.0685 31.9468 20.9485 32.504 21.0538C33.0612 21.1592 33.5538 21.4814 33.8737 21.9496C34.1936 22.4178 34.3147 22.9938 34.2103 23.5512C34.1059 24.1086 33.7846 24.6018 33.3169 24.9225C27.1091 29.1559 21.8047 34.5809 17.7117 40.8822C13.6188 47.1835 10.8191 54.2354 9.47529 61.6282C8.13149 69.0209 8.27041 76.607 9.88396 83.9456C11.4975 91.2842 14.5535 98.2289 18.8744 104.376C19.1005 104.697 19.2342 105.073 19.2609 105.464C19.2877 105.855 19.2065 106.246 19.0262 106.595C18.8459 106.943 18.5734 107.235 18.2384 107.439C17.9035 107.643 17.519 107.751 17.1269 107.751Z" fill="#EFEFEF"/>
<path d="M65.2944 132.715C53.9303 132.72 42.7893 129.56 33.1208 123.588C32.6385 123.288 32.2948 122.81 32.1655 122.257C32.0362 121.704 32.1318 121.122 32.4313 120.64C32.7308 120.158 33.2096 119.814 33.7624 119.685C34.3153 119.555 34.8968 119.651 35.3792 119.95C46.1533 126.602 58.838 129.47 71.4254 128.1C83.7179 126.747 95.2309 121.412 104.209 112.908C113.188 104.404 119.14 93.1969 121.157 80.9959C121.203 80.7185 121.303 80.4528 121.451 80.2139C121.599 79.9751 121.793 79.7678 122.021 79.6038C122.25 79.4398 122.508 79.3225 122.782 79.2584C123.055 79.1943 123.339 79.1848 123.616 79.2303C123.894 79.2758 124.16 79.3756 124.398 79.5238C124.637 79.672 124.845 79.8659 125.009 80.0942C125.172 80.3226 125.29 80.581 125.354 80.8547C125.418 81.1284 125.428 81.4121 125.382 81.6895C123.042 95.9378 115.715 108.891 104.709 118.237C93.7029 127.584 79.7336 132.715 65.2944 132.715Z" fill="#8D8D8D"/>
<path d="M55.6546 35.3332C55.1311 35.3335 54.6257 35.1421 54.2339 34.7951C53.842 34.4481 53.5909 33.9696 53.528 33.4499C53.4651 32.9303 53.5947 32.4057 53.8924 31.9751C54.19 31.5446 54.6351 31.2381 55.1435 31.1135C58.098 30.386 61.1225 29.9802 64.1643 29.9032C64.4471 29.8931 64.7291 29.9392 64.994 30.0388C65.2588 30.1383 65.5013 30.2895 65.7074 30.4833C65.9135 30.6772 66.0792 30.91 66.1947 31.1683C66.3103 31.4266 66.3734 31.7053 66.3806 31.9882C66.3878 32.271 66.3388 32.5525 66.2365 32.8164C66.1342 33.0802 65.9807 33.3211 65.7847 33.5252C65.5887 33.7293 65.3541 33.8925 65.0947 34.0054C64.8352 34.1183 64.5559 34.1786 64.273 34.1829C61.5403 34.2521 58.8231 34.6167 56.1688 35.2703C56.0006 35.312 55.8279 35.3331 55.6546 35.3332Z" fill="#8E8E8E"/>
<path d="M32.4074 96.3281C32.0589 96.3285 31.7155 96.2437 31.4072 96.0812C31.0989 95.9187 30.8349 95.6833 30.6382 95.3956C27.1671 90.3128 24.8584 84.5276 23.8764 78.4514C22.8944 72.3752 23.2632 66.1573 24.9565 60.2398C26.6498 54.3223 29.626 48.8505 33.6736 44.2136C37.7212 39.5767 42.7407 35.8884 48.3751 33.4111C48.8951 33.1833 49.4844 33.1713 50.0132 33.3779C50.542 33.5844 50.9671 33.9926 51.195 34.5126C51.4229 35.0326 51.4348 35.6219 51.2283 36.1507C51.0217 36.6795 50.6135 37.1046 50.0935 37.3325C45.0358 39.5572 40.5302 42.8687 36.8972 47.0316C33.2641 51.1946 30.5926 56.1068 29.0727 61.419C27.5529 66.7312 27.2219 72.313 28.1033 77.7676C28.9848 83.2222 31.057 88.4157 34.1726 92.9788C34.3926 93.3004 34.5206 93.6758 34.543 94.0648C34.5653 94.4537 34.4811 94.8413 34.2994 95.1859C34.1177 95.5305 33.8454 95.819 33.5118 96.0203C33.1783 96.2215 32.7962 96.328 32.4066 96.3281H32.4074Z" fill="#8E8E8E"/>
<path d="M65.2277 113.64C55.684 113.653 46.4235 110.398 38.9861 104.417C38.7633 104.242 38.5774 104.025 38.4393 103.778C38.3012 103.53 38.2135 103.258 38.1814 102.976C38.1493 102.695 38.1734 102.41 38.2522 102.138C38.3311 101.866 38.4632 101.612 38.6408 101.391C38.8185 101.171 39.0382 100.987 39.2872 100.852C39.5361 100.717 39.8095 100.633 40.0913 100.604C40.3731 100.575 40.6579 100.603 40.929 100.685C41.2001 100.767 41.4522 100.902 41.6707 101.083C47.1331 105.477 53.7155 108.257 60.6745 109.108C67.6335 109.959 74.6917 108.847 81.0519 105.897C87.4122 102.948 92.8211 98.2791 96.6676 92.4178C100.514 86.5565 102.645 79.7363 102.82 72.7277C102.834 72.1602 103.073 71.6215 103.484 71.2302C103.896 70.8389 104.446 70.6271 105.013 70.6413C105.581 70.6555 106.119 70.8946 106.511 71.3059C106.902 71.7173 107.114 72.2672 107.1 72.8348C106.841 83.3876 102.603 93.4525 95.2335 101.011C87.8645 108.569 77.9102 113.061 67.3673 113.587C66.6529 113.623 65.9397 113.64 65.2277 113.64Z" fill="#373737"/>
<path d="M56.3814 82.7619C56.1003 82.7623 55.8219 82.7072 55.5622 82.5996C55.3026 82.4921 55.0667 82.3343 54.8682 82.1353C53.4961 80.7759 52.4061 79.1588 51.6607 77.377C50.9153 75.5951 50.5292 73.6836 50.5246 71.7522C50.52 69.8207 50.897 67.9073 51.6339 66.122C52.3708 64.3366 53.4532 62.7144 54.8188 61.3485C56.1844 59.9826 57.8064 58.8999 59.5916 58.1626C61.3768 57.4254 63.2901 57.048 65.2215 57.0522C67.153 57.0564 69.0646 57.442 70.8466 58.1871C72.6286 58.9321 74.2459 60.0218 75.6055 61.3937C76.007 61.7951 76.2326 62.3396 76.2326 62.9074C76.2326 63.4752 76.0071 64.0197 75.6057 64.4212C75.2042 64.8227 74.6597 65.0482 74.0919 65.0483C73.5242 65.0483 72.9796 64.8228 72.5781 64.4213C70.6307 62.4741 67.9894 61.3802 65.2354 61.3804C62.4814 61.3806 59.8403 62.4748 57.8931 64.4222C55.9458 66.3697 54.852 69.011 54.8521 71.765C54.8523 74.519 55.9465 77.1601 57.894 79.1073C58.1934 79.4066 58.3974 79.788 58.48 80.2032C58.5627 80.6184 58.5205 81.0488 58.3586 81.4399C58.1967 81.8311 57.9224 82.1655 57.5705 82.4008C57.2185 82.6361 56.8047 82.7618 56.3814 82.7619Z" fill="#373737"/>
<path d="M65.2372 86.4229C63.3115 86.4265 61.4041 86.0495 59.6246 85.3136C57.845 84.5778 56.2285 83.4975 54.8677 82.1349C54.6689 81.9362 54.5113 81.7002 54.4037 81.4405C54.2961 81.1807 54.2407 80.9024 54.2407 80.6213C54.2407 80.3401 54.2961 80.0618 54.4037 79.8021C54.5113 79.5423 54.6689 79.3063 54.8677 79.1076C55.0665 78.9088 55.3025 78.7511 55.5622 78.6435C55.8219 78.5359 56.1003 78.4806 56.3814 78.4806C56.6625 78.4806 56.9409 78.5359 57.2006 78.6435C57.4603 78.7511 57.6963 78.9088 57.8951 79.1076C59.8426 81.0548 62.4838 82.1487 65.2378 82.1485C67.9918 82.1483 70.6329 81.0541 72.5802 79.1066C74.5274 77.1591 75.6213 74.5179 75.6211 71.7639C75.6209 69.0099 74.5267 66.3688 72.5792 64.4215C72.1817 64.0194 71.9594 63.4763 71.961 62.9108C71.9625 62.3453 72.1877 61.8034 72.5875 61.4034C72.9872 61.0035 73.529 60.7779 74.0944 60.776C74.6599 60.7741 75.2032 60.9961 75.6056 61.3934C77.6577 63.4433 79.0555 66.056 79.6221 68.9008C80.1887 71.7455 79.8986 74.6944 78.7885 77.3742C77.6784 80.054 75.7983 82.3442 73.386 83.9549C70.9737 85.5657 68.1378 86.4246 65.2372 86.4229Z" fill="#8E8E8E"/>
<path d="M72.6049 34.855C72.071 34.8544 71.5567 34.6543 71.1627 34.294C70.7688 33.9337 70.5237 33.4392 70.4755 32.9076L69.2661 19.5867C69.2149 19.0212 69.3904 18.4586 69.754 18.0225C70.1177 17.5864 70.6397 17.3127 71.2052 17.2615C71.7707 17.2103 72.3334 17.3858 72.7694 17.7495C73.2055 18.1131 73.4792 18.6351 73.5304 19.2006L74.7399 32.5204C74.7913 33.0858 74.6159 33.6484 74.2525 34.0845C73.889 34.5206 73.3672 34.7945 72.8018 34.8459C72.7352 34.8518 72.6696 34.855 72.6049 34.855Z" fill="#FF5F52"/>
<path d="M118.41 67.8247L104.117 66.5266C103.566 66.483 103.053 66.2276 102.686 65.8141C102.319 65.4005 102.126 64.861 102.147 64.3083C102.169 63.7557 102.404 63.233 102.803 62.8497C103.201 62.4664 103.733 62.2522 104.286 62.2521L104.482 62.2612L116.802 63.3797L121.412 58.7714C121.815 58.3775 122.357 58.1584 122.921 58.1617C123.485 58.165 124.024 58.3904 124.422 58.7891C124.821 59.1877 125.046 59.7273 125.049 60.2909C125.052 60.8545 124.833 61.3965 124.438 61.7993L118.41 67.8247Z" fill="#8E0000"/>
<path d="M85.6249 29.6006C85.3438 29.601 85.0654 29.5458 84.8056 29.4382C84.5459 29.3306 84.31 29.1727 84.1115 28.9736L77.1277 21.9898L75.4621 13.6502C75.4053 13.3739 75.4036 13.089 75.4573 12.812C75.5109 12.5351 75.6188 12.2714 75.7747 12.0363C75.9306 11.8011 76.1315 11.5991 76.3657 11.4419C76.6 11.2846 76.863 11.1752 77.1397 11.12C77.4163 11.0647 77.7012 11.0647 77.9779 11.12C78.2545 11.1752 78.5176 11.2846 78.7518 11.4418C78.9861 11.599 79.1869 11.801 79.3429 12.0362C79.4988 12.2713 79.6067 12.5349 79.6604 12.8119L81.0708 19.8811L87.1384 25.947C87.4375 26.2464 87.6411 26.6278 87.7236 27.0429C87.806 27.458 87.7636 27.8882 87.6016 28.2792C87.4397 28.6701 87.1654 29.0043 86.8136 29.2395C86.4618 29.4747 86.0481 29.6004 85.6249 29.6006Z" fill="#8E0000"/>
<path d="M114.526 40.019C114.245 40.0193 113.966 39.9641 113.707 39.8565C113.447 39.7488 113.211 39.5909 113.012 39.3918L97.6106 23.9873C97.2166 23.5843 96.9974 23.0422 97.0006 22.4787C97.0038 21.9151 97.2292 21.3755 97.6277 20.9771C98.0263 20.5786 98.5659 20.3534 99.1294 20.3503C99.693 20.3471 100.235 20.5664 100.638 20.9605L116.04 36.3647C116.339 36.6641 116.543 37.0455 116.626 37.4607C116.708 37.876 116.666 38.3064 116.504 38.6976C116.342 39.0887 116.067 39.4231 115.715 39.6583C115.363 39.8935 114.949 40.019 114.526 40.019Z" fill="#8E0000"/>
<path d="M123.77 61.5836C123.629 61.5836 123.487 61.5695 123.348 61.5416L115.012 59.873L107.658 52.521C107.456 52.3231 107.295 52.087 107.184 51.8263C107.074 51.5657 107.016 51.2857 107.014 51.0026C107.013 50.7195 107.067 50.4388 107.175 50.1769C107.282 49.9151 107.441 49.6771 107.641 49.4769C107.841 49.2767 108.079 49.1182 108.341 49.0105C108.603 48.9029 108.884 48.8483 109.167 48.8498C109.45 48.8514 109.73 48.9091 109.99 49.0196C110.251 49.1301 110.487 49.2913 110.685 49.4937L117.123 55.9295L124.188 57.3436C124.709 57.4474 125.173 57.7412 125.49 58.1681C125.806 58.5949 125.953 59.1242 125.901 59.653C125.849 60.1818 125.602 60.6723 125.208 61.0292C124.814 61.386 124.302 61.5836 123.77 61.5836Z" fill="#8E0000"/>
<path d="M83.721 59.7769C82.2173 59.7776 80.7599 59.2568 79.5972 58.3033C78.4344 57.3498 77.6384 56.0226 77.3446 54.5479C77.0508 53.0731 77.2776 51.5422 77.9862 50.2159C78.6948 48.8896 79.8413 47.8501 81.2305 47.2745C82.6197 46.6989 84.1655 46.6229 85.6045 47.0594C87.0434 47.4959 88.2865 48.4179 89.1218 49.6683C89.9571 50.9186 90.333 52.4199 90.1853 53.9164C90.0377 55.4128 89.3756 56.8117 88.3121 57.8747C87.7105 58.4794 86.995 58.9589 86.207 59.2854C85.4189 59.6119 84.574 59.779 83.721 59.7769ZM83.721 51.0646C83.3566 51.0643 82.9978 51.1539 82.6763 51.3254C82.3548 51.4969 82.0806 51.7451 81.878 52.0479C81.6753 52.3507 81.5504 52.6988 81.5145 53.0614C81.4785 53.424 81.5325 53.7899 81.6717 54.1266C81.8109 54.4634 82.0311 54.7606 82.3126 54.9919C82.5941 55.2232 82.9283 55.3816 83.2857 55.4529C83.643 55.5242 84.0124 55.5062 84.3611 55.4007C84.7099 55.2951 85.0272 55.1051 85.285 54.8476L85.2874 54.8452C85.5966 54.5352 85.807 54.1406 85.8921 53.7112C85.9772 53.2818 85.9332 52.8367 85.7656 52.4323C85.598 52.0278 85.3144 51.6821 84.9505 51.4386C84.5866 51.1952 84.1588 51.0651 83.721 51.0646Z" fill="#373737"/>
<path d="M88.342 89.0401C86.8404 89.0392 85.3856 88.5176 84.2253 87.5644C83.0651 86.6111 82.2713 85.285 81.9792 83.8121C81.687 82.3392 81.9146 80.8105 82.6231 79.4866C83.3316 78.1626 84.4772 77.1253 85.8648 76.5513C87.2524 75.9772 88.796 75.9021 90.2328 76.3386C91.6696 76.7751 92.9106 77.6962 93.7444 78.9451C94.5781 80.1939 94.9532 81.6932 94.8055 83.1876C94.6578 84.6819 93.9966 86.0788 92.9344 87.1403C92.3318 87.7438 91.6159 88.2223 90.8278 88.5483C90.0396 88.8744 89.1949 89.0415 88.342 89.0401ZM88.342 80.3296C87.9775 80.3293 87.6186 80.4189 87.297 80.5905C86.9754 80.762 86.7011 81.0103 86.4983 81.3132C86.2956 81.6161 86.1707 81.9643 86.1347 82.327C86.0986 82.6897 86.1526 83.0557 86.2919 83.3926C86.4311 83.7294 86.6513 84.0268 86.9328 84.2582C87.2144 84.4896 87.5487 84.6481 87.9062 84.7194C88.2636 84.7908 88.6332 84.7729 88.982 84.6674C89.3309 84.5618 89.6484 84.3718 89.9063 84.1143C90.216 83.8043 90.4269 83.4096 90.5125 82.9798C90.598 82.5501 90.5543 82.1046 90.3868 81.6997C90.2194 81.2948 89.9357 80.9486 89.5716 80.7048C89.2075 80.461 88.7794 80.3305 88.3412 80.3299L88.342 80.3296Z" fill="#373737"/>
<path d="M54.4548 55.1521C52.953 55.1513 51.4979 54.6297 50.3375 53.6764C49.1771 52.723 48.3831 51.3968 48.0909 49.9236C47.7987 48.4505 48.0262 46.9216 48.7348 45.5975C49.4434 44.2733 50.5892 43.2358 51.977 42.6617C53.3647 42.0876 54.9086 42.0125 56.3456 42.449C57.7826 42.8856 59.0237 43.8069 59.8576 45.056C60.6915 46.305 61.0665 47.8046 60.9187 49.2991C60.771 50.7937 60.1096 52.1907 59.0473 53.2523C58.4446 53.8558 57.7287 54.3343 56.9406 54.6604C56.1525 54.9864 55.3077 55.1535 54.4548 55.1521ZM54.4548 46.4451C54.0906 46.4451 53.7321 46.535 53.4109 46.7066C53.0897 46.8783 52.8158 47.1266 52.6135 47.4294C52.4112 47.7322 52.2867 48.0803 52.251 48.4427C52.2153 48.8051 52.2696 49.1708 52.409 49.5072C52.5484 49.8437 52.7686 50.1406 53.0502 50.3716C53.3317 50.6026 53.6659 50.7606 54.0231 50.8316C54.3803 50.9026 54.7495 50.8844 55.098 50.7786C55.4465 50.6729 55.7635 50.4828 56.021 50.2252C56.3306 49.9155 56.5413 49.5209 56.6266 49.0913C56.7119 48.6618 56.6679 48.2166 56.5001 47.812C56.3323 47.4075 56.0484 47.0618 55.6841 46.8187C55.3199 46.5756 54.8917 46.446 54.4538 46.4462L54.4548 46.4451Z" fill="#373737"/>
<path d="M39.0517 82.8791C37.5497 82.8778 36.0946 82.3558 34.9343 81.402C33.774 80.4482 32.9803 79.1216 32.6884 77.6482C32.3965 76.1748 32.6244 74.6458 33.3334 73.3217C34.0423 71.9975 35.1885 70.9601 36.5765 70.3862C37.9646 69.8123 39.5087 69.7374 40.9457 70.1742C42.3828 70.6111 43.624 71.5327 44.4578 72.782C45.2916 74.0313 45.6665 75.5311 45.5186 77.0258C45.3707 78.5205 44.7091 79.9177 43.6466 80.9793C43.0435 81.5829 42.3272 82.0615 41.5386 82.3875C40.7501 82.7135 39.905 82.8806 39.0517 82.8791ZM39.0517 74.1697C38.5398 74.1705 38.0439 74.3488 37.6487 74.6741C37.2534 74.9995 36.9832 75.4518 36.884 75.9541C36.7848 76.4563 36.8628 76.9774 37.1047 77.4286C37.3466 77.8798 37.7375 78.2332 38.2107 78.4285C38.6839 78.6239 39.2102 78.6491 39.6999 78.5C40.1897 78.3509 40.6126 78.0366 40.8966 77.6106C41.1806 77.1847 41.3081 76.6734 41.2575 76.164C41.2069 75.6546 40.9812 75.1784 40.6189 74.8167C40.413 74.6112 40.1687 74.4483 39.8998 74.3373C39.631 74.2263 39.3426 74.1694 39.0517 74.1697Z" fill="#373737"/>
<path d="M60.6159 104.443C59.1134 104.442 57.6577 103.92 56.497 102.966C55.3362 102.012 54.5421 100.685 54.25 99.2112C53.9579 97.7373 54.1859 96.2078 54.895 94.8832C55.6042 93.5586 56.7507 92.5208 58.1392 91.9467C59.5277 91.3726 61.0723 91.2977 62.5099 91.7347C63.9474 92.1718 65.189 93.0937 66.023 94.3435C66.857 95.5933 67.2319 97.0936 67.0838 98.5888C66.9357 100.084 66.2737 101.482 65.2107 102.543C64.6077 103.147 63.8913 103.626 63.1028 103.952C62.3143 104.278 61.4691 104.445 60.6159 104.443ZM60.6159 95.7341C60.1036 95.7348 59.6075 95.9131 59.212 96.2386C58.8164 96.5641 58.546 97.0167 58.4467 97.5192C58.3474 98.0217 58.4255 98.5431 58.6675 98.9946C58.9096 99.446 59.3007 99.7996 59.7742 99.995C60.2477 100.19 60.7743 100.216 61.2643 100.066C61.7543 99.9171 62.1774 99.6025 62.4615 99.1762C62.7455 98.75 62.873 98.2384 62.8222 97.7287C62.7714 97.219 62.5455 96.7426 62.1828 96.3808C61.7671 95.9661 61.2037 95.7335 60.6164 95.7341H60.6159Z" fill="#373737"/>
</svg>
