<svg width="137" height="137" viewBox="0 0 137 137" fill="none" xmlns="http://www.w3.org/2000/svg">
<path fill-rule="evenodd" clip-rule="evenodd" d="M50.0037 20.9142C53.6802 20.8676 57.3904 20.9142 61.0707 20.9142C62.1052 20.9142 62.9437 21.7528 62.9437 22.7872C62.9437 23.8217 62.1052 24.6603 61.0707 24.6603H51.8887V40.0524C51.8887 41.0869 51.0502 41.9255 50.0157 41.9255C48.9812 41.9255 48.1427 41.0869 48.1427 40.0524V24.6603H38.9604C37.926 24.6603 37.0874 23.8217 37.0874 22.7872C37.0874 21.7528 37.926 20.9142 38.9604 20.9142H50.0037ZM3.34473 43.0571C3.34473 42.0226 4.18332 41.184 5.21777 41.184C6.25223 41.184 7.09082 42.0226 7.09082 43.0571V56.2077H24.0432C25.0777 56.2077 25.9163 57.0463 25.9163 58.0808C25.9163 59.1152 25.0777 59.9538 24.0432 59.9538H7.09082V73.1045C7.09082 74.139 6.25223 74.9775 5.21777 74.9775C4.18332 74.9775 3.34473 74.139 3.34473 73.1045V43.0571Z" fill="#CAD0D7"/>
<path fill-rule="evenodd" clip-rule="evenodd" d="M74.5133 42.0764H87.3979C88.9223 42.0764 90.1658 43.3201 90.1658 44.8442V47.9931C90.1658 49.5172 91.4092 50.7609 92.9336 50.7609H94.7167C96.2411 50.7609 97.4846 49.5175 97.4846 47.9931C97.4846 46.6774 97.8383 45.6416 99.1465 45.0714C100.178 44.6219 101.312 44.8151 102.136 45.5812L106.753 49.8704C107.337 50.4133 107.637 51.1005 107.637 51.8981V68.176C107.637 68.9702 107.34 69.6541 106.76 70.1967L102.144 74.5181C101.321 75.2885 100.186 75.4854 99.1513 75.0367C98.1171 74.5882 97.4846 73.6247 97.4846 72.4974C97.4846 70.8065 96.547 69.3777 94.7167 69.3777H92.9336C91.4095 69.3777 90.1658 70.6214 90.1658 72.1455V81.621C90.1658 83.1451 88.9221 84.3888 87.3979 84.3888H37.0871C36.0711 84.3888 35.1983 83.885 34.6901 83.0049L31.861 78.1045C31.3529 77.2244 30.4801 76.7206 29.4641 76.7206H19.4973C17.9735 76.7206 16.7295 75.4771 16.7295 73.9527V42.2089C16.7295 40.6845 17.9729 39.441 19.4973 39.441H24.5345C25.6275 39.441 26.563 38.8505 27.0331 37.8639L28.367 35.0653C28.8371 34.0788 29.7729 33.4885 30.8656 33.4885H64.5278C65.6206 33.4885 66.2874 34.2607 67.0264 35.0656L72.0149 40.4993C72.7537 41.3042 73.4202 42.0764 74.5133 42.0764Z" fill="#A9B0BB"/>
<path fill-rule="evenodd" clip-rule="evenodd" d="M77.964 100.591C71.8247 100.591 68.7444 108.029 73.0853 112.37C73.8848 113.17 73.8848 114.467 73.0853 115.267L68.6764 119.675C67.8769 120.475 66.5799 120.475 65.7801 119.675C61.4392 115.334 54.0016 118.415 54.0016 124.554C54.0016 125.685 53.0846 126.602 51.9538 126.602H45.719C44.5882 126.602 43.6712 125.685 43.6712 124.554C43.6712 118.407 36.239 115.329 31.8927 119.675C31.0932 120.475 29.7962 120.475 28.9964 119.675L24.5875 115.267C23.788 114.467 23.788 113.17 24.5875 112.37C28.9285 108.029 25.8481 100.591 19.7088 100.591C18.5775 100.591 17.661 99.6745 17.661 98.5437V92.3088C17.661 91.178 18.5775 90.2611 19.7088 90.2611C25.8481 90.2611 28.9285 82.8235 24.5875 78.4825C23.788 77.683 23.788 76.3861 24.5875 75.5863L28.9964 71.1774C29.7959 70.3779 31.0929 70.3779 31.8927 71.1774C36.2336 75.5183 43.6712 72.4379 43.6712 66.2986C43.6712 65.1673 44.5882 64.2509 45.719 64.2509H51.9538C53.0846 64.2509 54.0016 65.1673 54.0016 66.2986C54.0016 72.4379 61.4392 75.5183 65.7801 71.1774C66.5799 70.3779 67.8769 70.3779 68.6764 71.1774L73.0853 75.5863C73.8848 76.3861 73.8848 77.683 73.0853 78.4825C68.7444 82.8235 71.8247 90.2611 77.964 90.2611C79.0956 90.2611 80.0118 91.178 80.0118 92.3088V98.5437C80.0118 99.6745 79.0953 100.591 77.964 100.591Z" fill="#FDCD56"/>
<path d="M48.8363 110.405C57.1088 110.405 63.8151 103.699 63.8151 95.4261C63.8151 87.1536 57.1088 80.4474 48.8363 80.4474C40.5638 80.4474 33.8575 87.1536 33.8575 95.4261C33.8575 103.699 40.5638 110.405 48.8363 110.405Z" fill="#F4F6F8"/>
<path fill-rule="evenodd" clip-rule="evenodd" d="M87.9059 63.2472H133.655V117.923C133.655 122.716 123.414 126.602 110.781 126.602C98.1472 126.602 87.9059 122.716 87.9059 117.923V63.2472Z" fill="#636C77"/>
<path fill-rule="evenodd" clip-rule="evenodd" d="M110.781 54.5688C123.414 54.5688 133.655 58.4543 133.655 63.2471V74.86C127.951 78.2042 119.814 80.297 110.781 80.297C101.747 80.297 93.6106 78.2042 87.9059 74.86V63.2474C87.9059 58.4543 98.1474 54.5688 110.781 54.5688Z" fill="#E4E8EB"/>
<path fill-rule="evenodd" clip-rule="evenodd" d="M110.781 66.3864C115.338 66.3864 119.055 64.9762 119.055 63.2471C119.055 61.518 115.338 60.1079 110.781 60.1079C106.223 60.1079 102.506 61.518 102.506 63.2471C102.506 64.9762 106.223 66.3864 110.781 66.3864Z" fill="#636C77"/>
<path fill-rule="evenodd" clip-rule="evenodd" d="M97.4038 76.0609V117.863H93.6577V76.0609H97.4038ZM127.903 76.0609V117.863H124.157V76.0609H127.903ZM120.278 77.8861V120.3H116.532V77.8861H120.278ZM112.654 78.4504V120.3H108.908V78.4504H112.654ZM105.029 77.8861V120.3H101.283V77.8861H105.029Z" fill="#A9B0BB"/>
<path fill-rule="evenodd" clip-rule="evenodd" d="M133.655 109.552V117.924C133.655 122.716 123.414 126.602 110.781 126.602C98.1472 126.602 87.9059 122.716 87.9059 117.924V109.552C87.9059 114.345 98.1472 118.23 110.781 118.23C123.414 118.23 133.655 114.345 133.655 109.552Z" fill="#CAD0D7"/>
<path fill-rule="evenodd" clip-rule="evenodd" d="M87.9059 63.2472C87.9059 68.04 98.1474 71.9255 110.781 71.9255C123.414 71.9255 133.655 68.04 133.655 63.2472V74.8601C127.951 78.2042 119.814 80.297 110.781 80.297C101.747 80.297 93.6106 78.2042 87.9059 74.8601V63.2472Z" fill="#CAD0D7"/>
<path fill-rule="evenodd" clip-rule="evenodd" d="M80.0532 24.9875C81.0876 24.9875 81.9262 25.8261 81.9262 26.8605C81.9262 27.895 81.0876 28.7336 80.0532 28.7336H72.7906C71.5463 28.7336 70.4174 28.2268 69.6 27.4096C68.7828 26.5924 68.276 25.4635 68.276 24.219V22.7668C68.276 21.7324 69.1146 20.8938 70.149 20.8938C71.1835 20.8938 72.0221 21.7324 72.0221 22.7668V24.219C72.0221 24.4293 72.1088 24.6214 72.2485 24.7611C72.3881 24.9008 72.58 24.9875 72.7906 24.9875H80.0532ZM79.6574 20.9711H74.5986C73.5641 20.9711 72.7256 21.8097 72.7256 22.8442C72.7256 23.8786 73.5641 24.7172 74.5986 24.7172H79.6574C80.6919 24.7172 81.5305 23.8786 81.5305 22.8442C81.5302 21.8097 80.6916 20.9711 79.6574 20.9711Z" fill="#A9B0BB"/>
<path fill-rule="evenodd" clip-rule="evenodd" d="M99.4785 15.9996V29.6891H79.3617C78.2686 29.6891 77.3771 28.7976 77.3771 27.7045V17.9842C77.3771 16.8911 78.2686 15.9996 79.3617 15.9996H99.4785Z" fill="#CAD0D7"/>
<path fill-rule="evenodd" clip-rule="evenodd" d="M133.655 22.0045V23.6841C133.655 24.421 133.054 25.022 132.317 25.022H123.22V20.6666H132.317C133.054 20.6666 133.655 21.2676 133.655 22.0045Z" fill="#A9B0BB"/>
<path fill-rule="evenodd" clip-rule="evenodd" d="M125.794 19.4323V26.2566C125.794 27.3497 124.902 28.2413 123.809 28.2413H106.368V17.4477H123.809C124.902 17.4477 125.794 18.3393 125.794 19.4323Z" fill="#E4E8EB"/>
<path fill-rule="evenodd" clip-rule="evenodd" d="M105.855 13.4436V32.2434H98.1404C97.4035 32.2434 96.8025 31.6424 96.8025 30.9055V14.7812C96.8025 14.0443 97.4035 13.4434 98.1404 13.4434L105.855 13.4436Z" fill="#A9B0BB"/>
<path fill-rule="evenodd" clip-rule="evenodd" d="M92.2007 15.9996V29.6891H88.4546V15.9996H92.2007ZM85.7253 15.9996V29.6891H81.9792V15.9996H85.7253Z" fill="#A9B0BB"/>
<path fill-rule="evenodd" clip-rule="evenodd" d="M109.557 11.736V33.9508C109.557 34.6877 108.956 35.2887 108.219 35.2887H104.518C103.781 35.2887 103.18 34.6877 103.18 33.9508V11.736C103.18 10.9991 103.781 10.3981 104.518 10.3981H108.219C108.956 10.3981 109.557 10.9991 109.557 11.736Z" fill="#CAD0D7"/>
</svg>
