<svg width="137" height="137" viewBox="0 0 137 137" fill="none" xmlns="http://www.w3.org/2000/svg">
<g clip-path="url(#clip0_99_1263)">
<path d="M25.1166 102.75V111.883C25.1166 113.094 24.6355 114.256 23.7791 115.112C22.9227 115.969 21.7611 116.45 20.55 116.45H11.4166C10.2055 116.45 9.04394 115.969 8.18752 115.112C7.3311 114.256 6.84998 113.094 6.84998 111.883V102.75H25.1166Z" fill="#151538"/>
<path d="M127.867 121.017H68.5C66.0777 121.017 63.7546 120.054 62.0418 118.342C60.329 116.629 59.3667 114.306 59.3667 111.883V34.25C59.3667 31.8277 60.329 29.5046 62.0418 27.7917C63.7546 26.0789 66.0777 25.1166 68.5 25.1166H84.4834V29.6833H68.5C67.2889 29.6833 66.1273 30.1644 65.2709 31.0209C64.4145 31.8773 63.9334 33.0388 63.9334 34.25V111.883C63.9334 113.094 64.4145 114.256 65.2709 115.112C66.1273 115.969 67.2889 116.45 68.5 116.45H127.867C129.078 116.45 130.239 115.969 131.096 115.112C131.952 114.256 132.433 113.094 132.433 111.883V34.25C132.433 33.0388 131.952 31.8773 131.096 31.0209C130.239 30.1644 129.078 29.6833 127.867 29.6833H111.883V25.1166H127.867C130.289 25.1166 132.612 26.0789 134.325 27.7917C136.038 29.5046 137 31.8277 137 34.25V111.883C137 114.306 136.038 116.629 134.325 118.342C132.612 120.054 130.289 121.017 127.867 121.017Z" fill="black"/>
<path d="M61.65 59.3667V105.033H6.84999C5.63995 105.03 4.4805 104.547 3.62486 103.692C2.76923 102.836 2.28694 101.677 2.28333 100.467V71.0802C2.28505 70.2938 2.48984 69.5211 2.87788 68.837C3.26591 68.153 3.82402 67.5807 4.49816 67.1757L13.7 61.65L15.9833 59.3667H61.65Z" fill="#DD2641"/>
<path d="M6.84999 52.5167H9.13333C10.3445 52.5167 11.506 52.9978 12.3624 53.8542C13.2189 54.7106 13.7 55.8722 13.7 57.0833V61.65H6.84999C5.63884 61.65 4.47729 61.1689 3.62087 60.3124C2.76445 59.456 2.28333 58.2945 2.28333 57.0833C2.28333 55.8722 2.76445 54.7106 3.62087 53.8542C4.47729 52.9978 5.63884 52.5167 6.84999 52.5167Z" fill="#DD2641"/>
<path d="M20.55 75.35C20.55 72.8279 18.5054 70.7833 15.9833 70.7833C13.4612 70.7833 11.4166 72.8279 11.4166 75.35V79.9167C11.4166 82.4388 13.4612 84.4833 15.9833 84.4833C18.5054 84.4833 20.55 82.4388 20.55 79.9167V75.35Z" fill="#F4BC2F"/>
<path d="M61.65 82.2H31.9667C31.3611 82.2 30.7803 81.9594 30.3521 81.5312C29.9239 81.103 29.6833 80.5222 29.6833 79.9167C29.6833 78.0999 30.405 76.3576 31.6897 75.073C32.9743 73.7883 34.7166 73.0667 36.5333 73.0667H61.65V82.2Z" fill="#9E1838"/>
<path d="M111.883 27.4H127.867C129.683 27.4 131.426 28.1217 132.71 29.4063C133.995 30.691 134.717 32.4333 134.717 34.25V111.883C134.717 113.7 133.995 115.442 132.71 116.727C131.426 118.012 129.683 118.733 127.867 118.733H68.5C66.6833 118.733 64.941 118.012 63.6563 116.727C62.3717 115.442 61.65 113.7 61.65 111.883V34.25C61.65 32.4333 62.3717 30.691 63.6563 29.4063C64.941 28.1217 66.6833 27.4 68.5 27.4H111.883Z" fill="white"/>
<path d="M61.65 34.25V61.65H13.7L21.2806 38.9308C21.7323 37.568 22.602 36.3822 23.7661 35.5419C24.9302 34.7016 26.3296 34.2496 27.7653 34.25H61.65Z" fill="#333387"/>
<path d="M79.9167 59.3667C79.3111 59.3666 78.7305 59.1259 78.3024 58.6977L73.7357 54.131C73.3198 53.7004 73.0896 53.1236 73.0948 52.5249C73.1 51.9262 73.3401 51.3535 73.7635 50.9302C74.1868 50.5068 74.7595 50.2667 75.3582 50.2615C75.9569 50.2563 76.5337 50.4864 76.9643 50.9024L79.5628 53.5008L87.1503 42.1161C87.3167 41.8666 87.5306 41.6524 87.7798 41.4856C88.0291 41.3188 88.3087 41.2027 88.6028 41.144C88.8968 41.0852 89.1996 41.085 89.4938 41.1433C89.788 41.2015 90.0678 41.3172 90.3173 41.4836C90.5667 41.65 90.781 41.864 90.9478 42.1132C91.1146 42.3624 91.2307 42.642 91.2894 42.9361C91.3481 43.2302 91.3484 43.533 91.2901 43.8271C91.2318 44.1213 91.1162 44.4011 90.9497 44.6506L81.8164 58.3506C81.6305 58.6332 81.3841 58.871 81.095 59.0467C80.806 59.2224 80.4815 59.3317 80.145 59.3667C80.0651 59.3667 79.9897 59.3667 79.9167 59.3667Z" fill="#33C455"/>
<path d="M118.733 50.2334H98.1834C97.5778 50.2334 96.997 49.9928 96.5688 49.5646C96.1406 49.1364 95.9 48.5556 95.9 47.95C95.9 47.3444 96.1406 46.7637 96.5688 46.3355C96.997 45.9073 97.5778 45.6667 98.1834 45.6667H118.733C119.339 45.6667 119.92 45.9073 120.348 46.3355C120.776 46.7637 121.017 47.3444 121.017 47.95C121.017 48.5556 120.776 49.1364 120.348 49.5646C119.92 49.9928 119.339 50.2334 118.733 50.2334Z" fill="#BBBACE"/>
<path d="M111.468 59.3667H98.1834C97.5778 59.3667 96.997 59.1261 96.5688 58.6979C96.1406 58.2697 95.9 57.6889 95.9 57.0833C95.9 56.4777 96.1406 55.897 96.5688 55.4688C96.997 55.0406 97.5778 54.8 98.1834 54.8H111.468C112.073 54.8 112.654 55.0406 113.082 55.4688C113.511 55.897 113.751 56.4777 113.751 57.0833C113.751 57.6889 113.511 58.2697 113.082 58.6979C112.654 59.1261 112.073 59.3667 111.468 59.3667Z" fill="#BBBACE"/>
<path d="M79.9167 82.2C79.3111 82.1999 78.7305 81.9592 78.3024 81.531L73.7357 76.9643C73.3198 76.5337 73.0896 75.9569 73.0948 75.3582C73.1 74.7595 73.3401 74.1868 73.7635 73.7635C74.1868 73.3401 74.7595 73.1 75.3582 73.0948C75.9569 73.0896 76.5337 73.3197 76.9643 73.7357L79.5628 76.3341L87.1503 64.9494C87.3167 64.6999 87.5306 64.4857 87.7798 64.3189C88.0291 64.1521 88.3087 64.036 88.6028 63.9773C88.8968 63.9185 89.1996 63.9183 89.4938 63.9766C89.788 64.0349 90.0678 64.1505 90.3173 64.3169C90.5667 64.4833 90.781 64.6973 90.9478 64.9465C91.1146 65.1957 91.2307 65.4753 91.2894 65.7694C91.3481 66.0635 91.3484 66.3663 91.2901 66.6605C91.2318 66.9546 91.1162 67.2344 90.9497 67.4839L81.8164 81.1839C81.629 81.4647 81.3817 81.7004 81.0923 81.8741C80.8029 82.0478 80.4786 82.1552 80.1427 82.1886C80.0651 82.2 79.9897 82.2 79.9167 82.2Z" fill="#33C455"/>
<path d="M118.733 73.0667H98.1834C97.5778 73.0667 96.997 72.8261 96.5688 72.3979C96.1406 71.9697 95.9 71.3889 95.9 70.7833C95.9 70.1778 96.1406 69.597 96.5688 69.1688C96.997 68.7406 97.5778 68.5 98.1834 68.5H118.733C119.339 68.5 119.92 68.7406 120.348 69.1688C120.776 69.597 121.017 70.1778 121.017 70.7833C121.017 71.3889 120.776 71.9697 120.348 72.3979C119.92 72.8261 119.339 73.0667 118.733 73.0667Z" fill="#BBBACE"/>
<path d="M111.468 82.2H98.1834C97.5778 82.2 96.997 81.9594 96.5688 81.5312C96.1406 81.103 95.9 80.5222 95.9 79.9166C95.9 79.3111 96.1406 78.7303 96.5688 78.3021C96.997 77.8739 97.5778 77.6333 98.1834 77.6333H111.468C112.073 77.6333 112.654 77.8739 113.082 78.3021C113.511 78.7303 113.751 79.3111 113.751 79.9166C113.751 80.5222 113.511 81.103 113.082 81.5312C112.654 81.9594 112.073 82.2 111.468 82.2Z" fill="#BBBACE"/>
<path d="M79.9167 105.033C79.3111 105.033 78.7305 104.793 78.3024 104.364L73.7357 99.7976C73.3198 99.367 73.0896 98.7902 73.0948 98.1915C73.1 97.5928 73.3401 97.0202 73.7635 96.5968C74.1868 96.1735 74.7595 95.9333 75.3582 95.9281C75.9569 95.9229 76.5337 96.1531 76.9643 96.569L79.5628 99.1674L87.1503 87.7827C87.3167 87.5332 87.5306 87.319 87.7798 87.1522C88.0291 86.9854 88.3087 86.8693 88.6028 86.8106C88.8968 86.7518 89.1996 86.7516 89.4938 86.8099C89.788 86.8682 90.0678 86.9838 90.3173 87.1502C90.5667 87.3167 90.781 87.5306 90.9478 87.7798C91.1146 88.029 91.2307 88.3087 91.2894 88.6027C91.3481 88.8968 91.3484 89.1996 91.2901 89.4938C91.2318 89.7879 91.1162 90.0677 90.9497 90.3172L81.8164 104.017C81.6305 104.3 81.3841 104.538 81.095 104.713C80.806 104.889 80.4815 104.998 80.145 105.033C80.0651 105.033 79.9897 105.033 79.9167 105.033Z" fill="#33C455"/>
<path d="M118.733 95.9H98.1834C97.5778 95.9 96.997 95.6594 96.5688 95.2312C96.1406 94.803 95.9 94.2222 95.9 93.6166C95.9 93.0111 96.1406 92.4303 96.5688 92.0021C96.997 91.5739 97.5778 91.3333 98.1834 91.3333H118.733C119.339 91.3333 119.92 91.5739 120.348 92.0021C120.776 92.4303 121.017 93.0111 121.017 93.6166C121.017 94.2222 120.776 94.803 120.348 95.2312C119.92 95.6594 119.339 95.9 118.733 95.9Z" fill="#BBBACE"/>
<path d="M111.468 105.033H98.1834C97.5778 105.033 96.997 104.793 96.5688 104.365C96.1406 103.936 95.9 103.356 95.9 102.75C95.9 102.144 96.1406 101.564 96.5688 101.135C96.997 100.707 97.5778 100.467 98.1834 100.467H111.468C112.073 100.467 112.654 100.707 113.082 101.135C113.511 101.564 113.751 102.144 113.751 102.75C113.751 103.356 113.511 103.936 113.082 104.365C112.654 104.793 112.073 105.033 111.468 105.033Z" fill="#BBBACE"/>
<path d="M61.65 95.9H34.25C33.6444 95.9 33.0637 95.6594 32.6354 95.2312C32.2072 94.803 31.9667 94.2222 31.9667 93.6166C31.9667 93.0111 32.2072 92.4303 32.6354 92.0021C33.0637 91.5739 33.6444 91.3333 34.25 91.3333H61.65C62.2556 91.3333 62.8364 91.5739 63.2646 92.0021C63.6928 92.4303 63.9333 93.0111 63.9333 93.6166C63.9333 94.2222 63.6928 94.803 63.2646 95.2312C62.8364 95.6594 62.2556 95.9 61.65 95.9Z" fill="#9E1838"/>
<path d="M18.2666 95.9H13.7C13.0944 95.9 12.5136 95.6594 12.0854 95.2312C11.6572 94.803 11.4166 94.2222 11.4166 93.6166C11.4166 93.0111 11.6572 92.4303 12.0854 92.0021C12.5136 91.5739 13.0944 91.3333 13.7 91.3333H18.2666C18.8722 91.3333 19.453 91.5739 19.8812 92.0021C20.3094 92.4303 20.55 93.0111 20.55 93.6166C20.55 94.2222 20.3094 94.803 19.8812 95.2312C19.453 95.6594 18.8722 95.9 18.2666 95.9Z" fill="#F4BC2F"/>
<path d="M127.867 25.1166H68.5C66.0777 25.1166 63.7546 26.0789 62.0418 27.7917C60.329 29.5046 59.3667 31.8277 59.3667 34.25V111.883C59.3667 114.306 60.329 116.629 62.0418 118.342C63.7546 120.054 66.0777 121.017 68.5 121.017H127.867C130.289 121.017 132.612 120.054 134.325 118.342C136.038 116.629 137 114.306 137 111.883V34.25C137 31.8277 136.038 29.5046 134.325 27.7917C132.612 26.0789 130.289 25.1166 127.867 25.1166ZM132.433 111.883C132.43 113.093 131.947 114.253 131.092 115.108C130.236 115.964 129.077 116.446 127.867 116.45H68.5C67.29 116.446 66.1305 115.964 65.2749 115.108C64.4193 114.253 63.937 113.093 63.9334 111.883V34.25C63.937 33.0399 64.4193 31.8805 65.2749 31.0248C66.1305 30.1692 67.29 29.6869 68.5 29.6833H127.867C129.077 29.6869 130.236 30.1692 131.092 31.0248C131.947 31.8805 132.43 33.0399 132.433 34.25V111.883Z" fill="#B27246"/>
<path d="M111.883 25.1167V29.6833C111.883 30.2889 111.643 30.8697 111.215 31.2979C110.786 31.7261 110.206 31.9667 109.6 31.9667H86.7667C86.1612 31.9667 85.5804 31.7261 85.1522 31.2979C84.724 30.8697 84.4834 30.2889 84.4834 29.6833V25.1167C84.4834 24.5111 84.724 23.9303 85.1522 23.5021C85.5804 23.0739 86.1612 22.8333 86.7667 22.8333H89.5981C90.4658 21.3517 91.728 20.1403 93.2439 19.3339C94.7598 18.5276 96.4698 18.1581 98.1834 18.2667C99.8997 18.1611 101.612 18.5317 103.131 19.3375C104.65 20.1434 105.917 21.3531 106.792 22.8333H109.6C110.206 22.8333 110.786 23.0739 111.215 23.5021C111.643 23.9303 111.883 24.5111 111.883 25.1167Z" fill="#E0DFE5"/>
</g>
<defs>
<clipPath id="clip0_99_1263">
<rect width="137" height="137" fill="white"/>
</clipPath>
</defs>
</svg>
