<svg width="137" height="137" viewBox="0 0 137 137" fill="none" xmlns="http://www.w3.org/2000/svg">
<g clip-path="url(#clip0_103_569)">
<path d="M135.185 66.0467L119.811 54.3753C118.421 53.3199 116.56 53.1409 114.995 53.9207C113.435 54.6935 112.447 56.287 112.447 58.0312V65.1728H107.9V57.9551C107.9 55.4199 105.845 53.3645 103.31 53.3645H94.1737V36.3198C94.1737 33.7841 92.1182 31.7291 89.584 31.7291H75.3087V26.8573H79.1516C81.6863 26.8573 83.7418 24.8019 83.7418 22.2672C83.7418 19.7325 81.6863 17.6779 79.1516 17.6779H49.4998C46.9656 17.6779 44.9101 19.7325 44.9101 22.2672C44.9101 24.8019 46.9656 26.8573 49.4998 26.8573H53.3454V31.7291H35.6017C33.067 31.7291 31.0115 33.7841 31.0115 36.3198V45.2789H22.0477C19.5126 45.2789 17.4576 47.3339 17.4576 49.8686V60.3683H9.17898V47.3455C9.17898 44.8108 7.12395 42.7558 4.58926 42.7558C2.05457 42.7553 0 44.8108 0 47.345V95.3529C0 97.8876 2.05457 99.9422 4.58972 99.9422C7.12441 99.9422 9.17944 97.8872 9.17944 95.3529V82.3297H17.4585V93.0933C17.4585 95.6285 19.5135 97.6831 22.0487 97.6831H33.5907L49.7837 117.625C50.6553 118.698 51.9644 119.321 53.3464 119.321H103.311C105.846 119.321 107.901 117.265 107.901 114.731V108.667H112.448V114.731C112.448 116.524 113.491 118.151 115.119 118.901C115.733 119.183 116.388 119.321 117.037 119.321C118.113 119.321 119.176 118.942 120.025 118.215L135.399 105.039C136.416 104.166 137.001 102.893 137.001 101.553V69.7012C137 68.2678 136.328 66.9142 135.185 66.0467Z" fill="black"/>
</g>
<defs>
<clipPath id="clip0_103_569">
<rect width="137" height="137" fill="white"/>
</clipPath>
</defs>
</svg>
