<svg width="137" height="137" viewBox="0 0 137 137" fill="none" xmlns="http://www.w3.org/2000/svg">
<path d="M101.433 39.5192H109.337C112.968 39.5192 115.923 36.5645 115.923 32.9327V9.22115C115.923 5.58933 112.968 2.63461 109.337 2.63461H101.433C97.8009 2.63461 94.8461 5.58933 94.8461 9.22115V18.4423H86.9423V17.125C86.9423 13.4932 83.9876 10.5385 80.3557 10.5385H56.6442C53.0124 10.5385 50.0577 13.4932 50.0577 17.125V18.4423H42.1538V9.22115C42.1538 5.58933 39.1991 2.63461 35.5673 2.63461H27.6634C24.0316 2.63461 21.0769 5.58933 21.0769 9.22115V32.9327C21.0769 36.5645 24.0316 39.5192 27.6634 39.5192H35.5673C39.1991 39.5192 42.1538 36.5645 42.1538 32.9327V23.7115H50.0577V25.0288C50.0577 28.6607 53.0124 31.6154 56.6442 31.6154C57.3706 31.6154 57.9615 32.2063 57.9615 32.9327V43.4711C57.9615 47.103 60.9162 50.0577 64.5481 50.0577H65.8654V113.288H42.1538V104.067C42.1538 100.435 39.1991 97.4808 35.5673 97.4808H27.6634C24.0316 97.4808 21.0769 100.435 21.0769 104.067V127.779C21.0769 131.411 24.0316 134.365 27.6634 134.365H35.5673C39.1991 134.365 42.1538 131.411 42.1538 127.779V118.558H94.8461V127.779C94.8461 131.411 97.8009 134.365 101.433 134.365H109.337C112.968 134.365 115.923 131.411 115.923 127.779V104.067C115.923 100.435 112.968 97.4808 109.337 97.4808H101.433C97.8009 97.4808 94.8461 100.435 94.8461 104.067V113.288H71.1346V50.0577H72.4519C76.0837 50.0577 79.0384 47.103 79.0384 43.4711V32.9327C79.0384 32.2063 79.6294 31.6154 80.3557 31.6154C83.9876 31.6154 86.9423 28.6607 86.9423 25.0288V23.7115H94.8461V32.9327C94.8461 36.5645 97.8009 39.5192 101.433 39.5192ZM36.8846 32.9327C36.8846 33.6591 36.2937 34.25 35.5673 34.25H27.6634C26.9371 34.25 26.3461 33.6591 26.3461 32.9327V9.22115C26.3461 8.49479 26.9371 7.90384 27.6634 7.90384H35.5673C36.2937 7.90384 36.8846 8.49479 36.8846 9.22115V32.9327ZM36.8846 127.779C36.8846 128.505 36.2937 129.096 35.5673 129.096H27.6634C26.9371 129.096 26.3461 128.505 26.3461 127.779V104.067C26.3461 103.341 26.9371 102.75 27.6634 102.75H35.5673C36.2937 102.75 36.8846 103.341 36.8846 104.067V127.779ZM100.115 104.067C100.115 103.341 100.706 102.75 101.433 102.75H109.337C110.063 102.75 110.654 103.341 110.654 104.067V127.779C110.654 128.505 110.063 129.096 109.337 129.096H101.433C100.706 129.096 100.115 128.505 100.115 127.779V104.067ZM81.6731 25.0288C81.6731 25.7552 81.0821 26.3462 80.3557 26.3462C76.7239 26.3462 73.7692 29.3009 73.7692 32.9327V43.4711C73.7692 44.1975 73.1783 44.7885 72.4519 44.7885H64.5481C63.8217 44.7885 63.2308 44.1975 63.2308 43.4711V32.9327C63.2308 29.3009 60.276 26.3462 56.6442 26.3462C55.9178 26.3462 55.3269 25.7552 55.3269 25.0288V17.125C55.3269 16.3986 55.9178 15.8077 56.6442 15.8077H80.3557C81.0821 15.8077 81.6731 16.3986 81.6731 17.125V25.0288ZM100.115 9.22115C100.115 8.49479 100.706 7.90384 101.433 7.90384H109.337C110.063 7.90384 110.654 8.49479 110.654 9.22115V32.9327C110.654 33.6591 110.063 34.25 109.337 34.25H101.433C100.706 34.25 100.115 33.6591 100.115 32.9327V9.22115Z" fill="black"/>
</svg>
