<svg width="135" height="137" viewBox="0 0 135 137" fill="none" xmlns="http://www.w3.org/2000/svg">
<path d="M116.94 134.993H18.0608V60.0341C18.0608 56.9566 20.5191 54.4619 23.5516 54.4619H111.449C114.481 54.4619 116.94 56.9566 116.94 60.0341V134.993H116.94Z" fill="#57758D"/>
<path d="M23.9851 128.708V54.4619H23.5516C20.5191 54.4619 18.0608 56.9566 18.0608 60.0341V134.993H116.94V128.708H23.9851Z" fill="#4B6276"/>
<path d="M83.321 62.4894H51.6797V126.71H83.321V62.4894Z" fill="#A9BACA"/>
<path d="M57.5241 120.71V62.4894H51.6797V126.71H83.321V120.71H57.5241Z" fill="#8CA3B7"/>
<path d="M71.4555 94.6163H63.5452V118.703H71.4555V94.6163Z" fill="#C6D2DB"/>
<path d="M63.5452 46.4512V94.6163C63.5452 96.833 65.316 98.6301 67.5003 98.6301C69.6846 98.6301 71.4555 96.833 71.4555 94.6163V46.4512H63.5452Z" fill="#4B6276"/>
<path d="M85.2985 20.0688C85.2985 10.1749 77.4596 2.13907 67.741 2.00849C57.9338 1.87657 49.7018 10.1155 49.702 20.0688C49.702 24.7347 51.4463 28.9858 54.3085 32.1898C57.6456 35.9253 59.5899 40.7263 59.5899 45.7684V46.4515H75.4106V46.0244C75.4106 40.965 77.1952 36.0323 80.5784 32.3158C83.5079 29.0976 85.2985 24.7959 85.2985 20.0688Z" fill="#F05475"/>
<path d="M53.2264 9.37667C55.7662 14.7856 61.203 18.5235 67.5004 18.5235C73.8212 18.5235 79.2751 14.7575 81.8025 9.31592C81.2606 8.57445 76.361 2.10909 67.7408 2.00848C58.8254 1.90439 53.7166 8.69995 53.2264 9.37667Z" fill="#E3E9EE"/>
<path d="M71.4413 13.9197C65.3588 13.9197 60.0797 10.432 57.4382 5.3201C54.9161 7.11371 53.4754 9.03309 53.2264 9.37667C55.7662 14.7856 61.203 18.5235 67.5004 18.5235C73.3487 18.5235 78.453 15.2983 81.1858 10.5061C78.5007 12.6433 75.1183 13.9197 71.4413 13.9197Z" fill="#C6D2DB"/>
<path d="M58.704 28.1461C53.7033 22.1811 52.5635 18.3696 53.5061 11.3183C53.74 9.56828 54.758 7.89802 56.0103 6.36316C52.1706 9.69217 49.702 14.6219 49.702 20.0688C49.702 24.7347 51.4463 28.9855 54.3085 32.1898C57.6456 35.9253 59.5899 40.7263 59.5899 45.7684V46.4515H75.4106V46.0244C75.4106 44.1227 75.6629 42.2389 76.1576 40.4309H64.9639C64.0131 35.9298 61.7595 31.7909 58.704 28.1461Z" fill="#E21743"/>
<path d="M95.1864 74.5647C97.3707 74.5647 99.1415 72.7676 99.1415 70.5509C99.1415 68.3342 97.3707 66.5371 95.1864 66.5371C93.002 66.5371 91.2312 68.3342 91.2312 70.5509C91.2312 72.7676 93.002 74.5647 95.1864 74.5647Z" fill="#54E072"/>
<path d="M95.1864 90.6079C97.3707 90.6079 99.1415 88.8109 99.1415 86.5941C99.1415 84.3774 97.3707 82.5804 95.1864 82.5804C93.002 82.5804 91.2312 84.3774 91.2312 86.5941C91.2312 88.8109 93.002 90.6079 95.1864 90.6079Z" fill="#C6D2DB"/>
<path d="M95.1864 106.663C97.3707 106.663 99.1415 104.866 99.1415 102.649C99.1415 100.432 97.3707 98.6352 95.1864 98.6352C93.002 98.6352 91.2312 100.432 91.2312 102.649C91.2312 104.866 93.002 106.663 95.1864 106.663Z" fill="#E21743"/>
<path d="M95.1864 122.717C97.3707 122.717 99.1415 120.92 99.1415 118.703C99.1415 116.487 97.3707 114.69 95.1864 114.69C93.002 114.69 91.2312 116.487 91.2312 118.703C91.2312 120.92 93.002 122.717 95.1864 122.717Z" fill="#54C9F3"/>
<path d="M39.8142 82.5686C41.9985 82.5686 43.7693 84.3657 43.7693 86.5824V118.692C43.7693 120.909 41.9985 122.706 39.8142 122.706C37.6299 122.706 35.859 120.909 35.859 118.692V86.5824C35.859 84.3657 37.6296 82.5686 39.8142 82.5686Z" fill="#F7D700"/>
<path d="M25.9791 60.474V64.4877" stroke="white" stroke-width="3.95516" stroke-miterlimit="10"/>
<path d="M33.9065 60.474V64.4877" stroke="white" stroke-width="3.95516" stroke-miterlimit="10"/>
<path d="M103.097 134.993H18.0608V60.064C18.0608 56.9699 20.5322 54.4619 23.5811 54.4619H63.5452" stroke="black" stroke-width="3.95516" stroke-miterlimit="10"/>
<path d="M71.4554 54.4619H111.419C114.468 54.4619 116.94 56.9699 116.94 60.064V134.993H107.052" stroke="black" stroke-width="3.95516" stroke-miterlimit="10"/>
<path d="M85.2985 20.0688C85.2985 10.1749 77.4596 2.13907 67.741 2.00849C57.9338 1.87657 49.7018 10.1155 49.702 20.0688C49.702 24.7347 51.4463 28.9858 54.3085 32.1898C57.6456 35.9253 59.5899 40.7263 59.5899 45.7684V46.4515H75.4106V46.0244C75.4106 40.965 77.1952 36.0323 80.5784 32.3158C83.5079 29.0976 85.2985 24.7959 85.2985 20.0688Z" stroke="black" stroke-width="3.95516" stroke-miterlimit="10"/>
<path d="M63.5452 46.4512V94.6163C63.5452 96.833 65.316 98.6301 67.5003 98.6301C69.6846 98.6301 71.4555 96.833 71.4555 94.6163V46.4512" stroke="black" stroke-width="3.95516" stroke-miterlimit="10"/>
<path d="M51.6797 76.6315V62.4894H63.5452" stroke="black" stroke-width="3.95516" stroke-miterlimit="10"/>
<path d="M71.4555 62.4894H83.321V126.71H51.6797V80.5428" stroke="black" stroke-width="3.95516" stroke-miterlimit="10"/>
<path d="M95.1864 74.5647C97.3707 74.5647 99.1415 72.7676 99.1415 70.5509C99.1415 68.3342 97.3707 66.5371 95.1864 66.5371C93.002 66.5371 91.2312 68.3342 91.2312 70.5509C91.2312 72.7676 93.002 74.5647 95.1864 74.5647Z" stroke="black" stroke-width="3.95516" stroke-miterlimit="10"/>
<path d="M95.1864 90.5905C97.3707 90.5905 99.1415 88.7935 99.1415 86.5767C99.1415 84.36 97.3707 82.563 95.1864 82.563C93.002 82.563 91.2312 84.36 91.2312 86.5767C91.2312 88.7935 93.002 90.5905 95.1864 90.5905Z" stroke="black" stroke-width="3.95516" stroke-miterlimit="10"/>
<path d="M95.1864 106.651C97.3707 106.651 99.1415 104.854 99.1415 102.637C99.1415 100.421 97.3707 98.6237 95.1864 98.6237C93.002 98.6237 91.2312 100.421 91.2312 102.637C91.2312 104.854 93.002 106.651 95.1864 106.651Z" stroke="black" stroke-width="3.95516" stroke-miterlimit="10"/>
<path d="M95.1864 122.717C97.3707 122.717 99.1415 120.92 99.1415 118.703C99.1415 116.487 97.3707 114.69 95.1864 114.69C93.002 114.69 91.2312 116.487 91.2312 118.703C91.2312 120.92 93.002 122.717 95.1864 122.717Z" stroke="black" stroke-width="3.95516" stroke-miterlimit="10"/>
<path d="M39.8142 82.5686C41.9985 82.5686 43.7693 84.3657 43.7693 86.5824V118.692C43.7693 120.909 41.9985 122.706 39.8142 122.706C37.6299 122.706 35.859 120.909 35.859 118.692V86.5824C35.859 84.3657 37.6296 82.5686 39.8142 82.5686Z" stroke="black" stroke-width="3.95516" stroke-miterlimit="10"/>
<path d="M63.5452 94.6166V118.703H71.4555V94.6166" stroke="black" stroke-width="3.95516" stroke-miterlimit="10"/>
<path d="M53.2264 9.37669C55.7662 14.7856 61.203 18.5235 67.5004 18.5235C73.8212 18.5235 79.2751 14.7575 81.8025 9.31595" stroke="black" stroke-width="3.95516" stroke-miterlimit="10"/>
</svg>
