<svg width="137" height="137" viewBox="0 0 137 137" fill="none" xmlns="http://www.w3.org/2000/svg">
<path d="M113.453 27.8281H117.734V36.3906H113.453V27.8281Z" fill="#E67469"/>
<path d="M122.016 27.8281H126.297V36.3906H122.016V27.8281Z" fill="#E67469"/>
<path d="M21.4062 130.578H12.8438L10.7031 119.875H23.5469L21.4062 130.578Z" fill="#E67469"/>
<path d="M124.156 130.578H115.594L113.453 119.875H126.297L124.156 130.578Z" fill="#E67469"/>
<path d="M58.5996 27.8281H54.3184C54.3184 25.4467 55.3785 24.1757 56.1523 23.2467C56.7303 22.5531 56.9941 22.2357 56.9941 21.4062C56.9941 20.5768 56.7303 20.2591 56.1523 19.5656C55.3785 18.6363 54.3184 17.3658 54.3184 14.9844C54.3184 12.6029 55.3785 11.3319 56.1523 10.4032C56.7306 9.70934 56.9941 9.39199 56.9941 8.5625H61.2754C61.2754 10.9439 60.2152 12.2149 59.4414 13.1437C58.8632 13.837 58.5996 14.1549 58.5996 14.9844C58.5996 15.8139 58.8634 16.1315 59.4414 16.825C60.2152 17.7535 61.2754 19.0248 61.2754 21.4062C61.2754 23.7877 60.2152 25.0587 59.4414 25.9877C58.8634 26.681 58.5996 26.9986 58.5996 27.8281Z" fill="#FFCC78"/>
<path d="M102.75 27.8281H98.4688C98.4688 25.4467 99.5289 24.1757 100.303 23.2467C100.881 22.5531 101.145 22.2357 101.145 21.4062C101.145 20.5768 100.881 20.2591 100.303 19.5656C99.5289 18.6363 98.4688 17.3658 98.4688 14.9844C98.4688 12.6029 99.5289 11.3319 100.303 10.4032C100.881 9.70934 101.145 9.39199 101.145 8.5625H105.426C105.426 10.9439 104.366 12.2149 103.592 13.1437C103.014 13.837 102.75 14.1549 102.75 14.9844C102.75 15.8139 103.014 16.1315 103.592 16.825C104.366 17.7535 105.426 19.0248 105.426 21.4062C105.426 23.7877 104.366 25.0587 103.592 25.9877C103.014 26.681 102.75 26.9986 102.75 27.8281Z" fill="#FFCC78"/>
<path d="M36.3906 23.5469H32.1094C32.1094 21.1654 33.1695 19.8944 33.9434 18.9654C34.5213 18.2718 34.7852 17.9545 34.7852 17.125C34.7852 16.2955 34.5213 15.9779 33.9434 15.2843C33.1695 14.355 32.1094 13.0846 32.1094 10.7031C32.1094 8.32168 33.1695 7.05068 33.9434 6.12192C34.5216 5.42809 34.7852 5.11074 34.7852 4.28125H39.0664C39.0664 6.6627 38.0063 7.93369 37.2324 8.86245C36.6542 9.55575 36.3906 9.87363 36.3906 10.7031C36.3906 11.5326 36.6545 11.8502 37.2324 12.5438C38.0063 13.4723 39.0664 14.7436 39.0664 17.125C39.0664 19.5064 38.0063 20.7774 37.2324 21.7065C36.6545 22.3998 36.3906 22.7174 36.3906 23.5469Z" fill="#FFCC78"/>
<path d="M80.541 23.5469H76.2598C76.2598 21.1654 77.3199 19.8944 78.0937 18.9654C78.6717 18.2718 78.9355 17.9545 78.9355 17.125C78.9355 16.2955 78.6717 15.9779 78.0937 15.2843C77.3199 14.355 76.2598 13.0846 76.2598 10.7031C76.2598 8.32168 77.3199 7.05068 78.0937 6.12192C78.672 5.42809 78.9355 5.11074 78.9355 4.28125H83.2168C83.2168 6.6627 82.1567 7.93369 81.3828 8.86245C80.8046 9.55575 80.541 9.87363 80.541 10.7031C80.541 11.5326 80.8048 11.8502 81.3828 12.5438C82.1567 13.4723 83.2168 14.7436 83.2168 17.125C83.2168 19.5064 82.1567 20.7774 81.3828 21.7065C80.8048 22.3998 80.541 22.7174 80.541 23.5469Z" fill="#FFCC78"/>
<path d="M127.902 34.25H9.09766C7.61986 34.25 6.42188 35.448 6.42188 36.9258V119.34C6.42188 120.818 7.61986 122.016 9.09766 122.016H127.902C129.38 122.016 130.578 120.818 130.578 119.34V36.9258C130.578 35.448 129.38 34.25 127.902 34.25Z" fill="#FF8175"/>
<path d="M14.9844 42.8125H122.016V104.891H14.9844V42.8125Z" fill="#FFCC78"/>
<path d="M55.6562 111.312H81.3438V115.594H55.6562V111.312Z" fill="#E67469"/>
<path d="M122.016 98.4688H116.664C114.678 98.4665 112.773 97.6764 111.369 96.2718C109.964 94.8673 109.174 92.9629 109.172 90.9766V55.6562C109.172 55.0885 108.946 54.544 108.545 54.1426C108.143 53.7412 107.599 53.5156 107.031 53.5156C106.464 53.5156 105.919 53.7412 105.518 54.1426C105.116 54.544 104.891 55.0885 104.891 55.6562V92.0469C104.891 93.7501 104.214 95.3835 103.01 96.5878C101.805 97.7922 100.172 98.4688 98.4688 98.4688C96.7656 98.4688 95.1321 97.7922 93.9278 96.5878C92.7235 95.3835 92.0469 93.7501 92.0469 92.0469V55.6562C92.0469 55.0885 91.8214 54.544 91.4199 54.1426C91.0185 53.7412 90.474 53.5156 89.9062 53.5156C89.3385 53.5156 88.794 53.7412 88.3926 54.1426C87.9911 54.544 87.7656 55.0885 87.7656 55.6562V92.0469C87.7656 93.7501 87.089 95.3835 85.8847 96.5878C84.6804 97.7922 83.0469 98.4688 81.3438 98.4688C79.6406 98.4688 78.0071 97.7922 76.8028 96.5878C75.5985 95.3835 74.9219 93.7501 74.9219 92.0469V55.6562C74.9219 55.0885 74.6963 54.544 74.2949 54.1426C73.8935 53.7412 73.349 53.5156 72.7812 53.5156C72.2135 53.5156 71.669 53.7412 71.2676 54.1426C70.8662 54.544 70.6406 55.0885 70.6406 55.6562V92.0469C70.6406 93.7501 69.964 95.3835 68.7597 96.5878C67.5554 97.7922 65.9219 98.4688 64.2188 98.4688C62.5156 98.4688 60.8821 97.7922 59.6778 96.5878C58.4735 95.3835 57.7969 93.7501 57.7969 92.0469V55.6562C57.7969 55.0885 57.5713 54.544 57.1699 54.1426C56.7685 53.7412 56.224 53.5156 55.6562 53.5156C55.0885 53.5156 54.544 53.7412 54.1426 54.1426C53.7412 54.544 53.5156 55.0885 53.5156 55.6562V92.0469C53.5156 93.7501 52.839 95.3835 51.6347 96.5878C50.4304 97.7922 48.7969 98.4688 47.0938 98.4688C45.3906 98.4688 43.7571 97.7922 42.5528 96.5878C41.3485 95.3835 40.6719 93.7501 40.6719 92.0469V55.6562C40.6719 55.0885 40.4463 54.544 40.0449 54.1426C39.6435 53.7412 39.099 53.5156 38.5312 53.5156C37.9635 53.5156 37.419 53.7412 37.0176 54.1426C36.6162 54.544 36.3906 55.0885 36.3906 55.6562V92.0469C36.3906 93.7501 35.714 95.3835 34.5097 96.5878C33.3054 97.7922 31.6719 98.4688 29.9688 98.4688C28.2656 98.4688 26.6321 97.7922 25.4278 96.5878C24.2235 95.3835 23.5469 93.7501 23.5469 92.0469V55.6562C23.5462 55.0887 23.3205 54.5446 22.9192 54.1433C22.5179 53.742 21.9738 53.5163 21.4062 53.5156H14.9844V49.2344H21.4062C23.1089 49.2363 24.7412 49.9135 25.9451 51.1174C27.149 52.3213 27.8262 53.9536 27.8281 55.6562V92.0469C27.8281 92.6146 28.0537 93.1591 28.4551 93.5605C28.8565 93.962 29.401 94.1875 29.9688 94.1875C30.5365 94.1875 31.081 93.962 31.4824 93.5605C31.8838 93.1591 32.1094 92.6146 32.1094 92.0469V55.6562C32.1094 53.9531 32.786 52.3196 33.9903 51.1153C35.1946 49.911 36.8281 49.2344 38.5312 49.2344C40.2344 49.2344 41.8679 49.911 43.0722 51.1153C44.2765 52.3196 44.9531 53.9531 44.9531 55.6562V92.0469C44.9531 92.6146 45.1787 93.1591 45.5801 93.5605C45.9815 93.962 46.526 94.1875 47.0938 94.1875C47.6615 94.1875 48.206 93.962 48.6074 93.5605C49.0088 93.1591 49.2344 92.6146 49.2344 92.0469V55.6562C49.2344 53.9531 49.911 52.3196 51.1153 51.1153C52.3196 49.911 53.9531 49.2344 55.6562 49.2344C57.3594 49.2344 58.9929 49.911 60.1972 51.1153C61.4015 52.3196 62.0781 53.9531 62.0781 55.6562V92.0469C62.0781 92.6146 62.3037 93.1591 62.7051 93.5605C63.1065 93.962 63.651 94.1875 64.2188 94.1875C64.7865 94.1875 65.331 93.962 65.7324 93.5605C66.1338 93.1591 66.3594 92.6146 66.3594 92.0469V55.6562C66.3594 53.9531 67.036 52.3196 68.2403 51.1153C69.4446 49.911 71.0781 49.2344 72.7812 49.2344C74.4844 49.2344 76.1179 49.911 77.3222 51.1153C78.5265 52.3196 79.2031 53.9531 79.2031 55.6562V92.0469C79.2031 92.6146 79.4286 93.1591 79.8301 93.5605C80.2315 93.962 80.776 94.1875 81.3438 94.1875C81.9115 94.1875 82.456 93.962 82.8574 93.5605C83.2589 93.1591 83.4844 92.6146 83.4844 92.0469V55.6562C83.4844 53.9531 84.161 52.3196 85.3653 51.1153C86.5696 49.911 88.2031 49.2344 89.9062 49.2344C91.6094 49.2344 93.2429 49.911 94.4472 51.1153C95.6515 52.3196 96.3281 53.9531 96.3281 55.6562V92.0469C96.3281 92.6146 96.5536 93.1591 96.9551 93.5605C97.3565 93.962 97.901 94.1875 98.4688 94.1875C99.0365 94.1875 99.581 93.962 99.9824 93.5605C100.384 93.1591 100.609 92.6146 100.609 92.0469V55.6562C100.609 53.9531 101.286 52.3196 102.49 51.1153C103.695 49.911 105.328 49.2344 107.031 49.2344C108.734 49.2344 110.368 49.911 111.572 51.1153C112.777 52.3196 113.453 53.9531 113.453 55.6562V90.9766C113.454 91.8279 113.793 92.6441 114.395 93.246C114.997 93.848 115.813 94.1866 116.664 94.1875H122.016V98.4688Z" fill="#FFF5E4"/>
<path d="M119.875 111.312H124.156V115.594H119.875V111.312Z" fill="#E67469"/>
<path d="M111.312 111.312H115.594V115.594H111.312V111.312Z" fill="#E67469"/>
<path d="M12.8438 111.312H17.125V115.594H12.8438V111.312Z" fill="#E67469"/>
<path d="M21.4062 111.312H25.6875V115.594H21.4062V111.312Z" fill="#E67469"/>
</svg>
